<?xml version="1.0" encoding="utf-8"?>
<!-- Generator: Adobe Illustrator 21.0.0, SVG Export Plug-In . SVG Version: 6.00 Build 0)  -->
<svg version="1.1" id="图层_1" xmlns="http://www.w3.org/2000/svg" xmlns:xlink="http://www.w3.org/1999/xlink" x="0px" y="0px"
	 viewBox="0 0 800 250" style="enable-background:new 0 0 800 250;" xml:space="preserve">
<style type="text/css">
	.st0{fill:#fff;}
</style>
<g>
	<path class="st0" d="M602.8,68.7c-50.5,0-91.5,40.1-91.5,89.5c0,49.4,41,89.5,91.5,89.5c38.4,0,71.3-23.1,84.8-56l-39.4-6.9
		c-8.7,16-25.3,26.8-44.2,26.8c-25.1,0-45.8-18.8-50-43.6h139.7c0.4-3.2,0.6-6.4,0.6-9.7C694.3,108.8,653.3,68.7,602.8,68.7z
		 M556.9,139.1c7.4-19.5,25.8-33.3,47.2-33.3c21.4,0,39.7,13.8,47.2,33.3H556.9z"/>
	<rect x="440" y="72.4" class="st0" width="46.7" height="171.9"/>
	<path class="st0" d="M463.4,2.3c-14.4,0-26.1,11.7-26.1,26.1c0,14.3,11.7,26,26.1,26c14.4,0,26-11.7,26-26
		C489.4,14,477.8,2.3,463.4,2.3z"/>
	<polygon class="st0" points="154.1,109.9 53.3,109.9 53.3,17.3 2.3,17.3 2.3,244.2 53.3,244.2 53.3,151.7 154.1,151.7 154.1,244.2 
		205.2,244.2 205.2,17.3 154.1,17.3 	"/>
	<path class="st0" d="M364.9,81.7c-13.6-8.2-29.5-12.9-46.6-12.9c-49.5,0-89.7,40-89.7,89.4c0,49.4,40.2,89.4,89.7,89.4
		c16.6,0,32.1-4.5,45.5-12.3v9h45.6V72.5h-44.5V81.7z M320.7,209.9c-28.9,0-52.3-23.1-52.3-51.7c0-28.6,23.4-51.7,52.3-51.7
		c28.9,0,52.3,23.2,52.3,51.7C373,186.8,349.6,209.9,320.7,209.9z"/>
	<path class="st0" d="M790.9,56.5c-43,7.5-75.7,45-76.2,90.1v97.8h44.7l0-99.7c0-22.8,17.1-41.7,39.2-44.4L790.9,56.5z"/>
</g>
</svg>
